<svg width="294.97001190185546" height="55.785179257203275" viewBox="0 -11 257.79534365544566 48.75464920914184">
  
  <g id="SvgjsG9108" featurekey="odWo6G-0" transform="matrix(0.4928805968877085,0,0,0.4928805968877085,22.683461288637282,-17.30887314431488)" fill="#354020">
    <g xmlns="http://www.w3.org/2000/svg">
      <path d="M87.2,63.1v4.8h-8.9v5.4H67.9c-0.9-2.3-3.1-3.9-5.7-3.9c-0.6,0-1.1,0.1-1.7,0.3l-5.5-5.5   c1.7-2.1,2.8-4.7,2.8-7.7c0-0.3-0.1-0.6-0.1-1l25.3-16.2l-17-26.5L8.7,49.5l17,26.5L40,66.8c1.7,1,3.7,1.6,5.9,1.6   c1.5,0,2.9-0.3,4.2-0.8l6.2,6.2c-0.1,0.5-0.3,1.1-0.3,1.7c0,3.4,2.7,6.1,6.1,6.1c2,0,3.7-1,4.9-2.4h11.2v5.4h8.9v4.8h8.9V63.1H87.2   z M4.7,62.6l5.8,10.4h9.3L9.2,55.5L4.7,62.6z"/>
    </g>
    
  </g>
  <g id="SvgjsG9109" featurekey="nameLeftFeature-0" transform="matrix(2.6093763457747494,0,0,2.6093763457747494,63.00952485363846,-15.497343323996407)" fill="#354020">
    <path d="M12.661 17.5764 c0.13559 0.11864 0.13576 0.27136 -0.016784 0.42373 c-1.2542 1.3222 -2.9661 2.1186 -5 2.1186 c-3.7627 0 -6.8814 -3.0168 -6.8814 -6.8642 s3.1186 -6.9322 6.8814 -6.9322 c2 0 3.7625 0.79661 5.0337 2.1356 c0.15254 0.15238 0.15254 0.30492 0.016949 0.40661 l-1.0847 0.88119 c-0.13559 0.11881 -0.25424 0.11881 -0.38983 -0.016784 c-0.72881 -0.76271 -1.9831 -1.5593 -3.5085 -1.5593 c-3.0508 0 -5.0339 2.5424 -5.0339 5.0847 c0 2.5593 1.9831 5.0169 5.0339 5.0169 c1.5085 0 2.7288 -0.76271 3.4576 -1.5085 c0.13559 -0.15254 0.27119 -0.16933 0.40678 -0.067797 z M15.779471186440677 8.492 c-0.55915 0 -1.0168 -0.44068 -1.0168 -1.0169 c0 -0.55932 0.45763 -1.0169 1.0168 -1.0169 c0.55932 0 1.0169 0.45763 1.0169 1.0169 c0 0.57627 -0.45763 1.0169 -1.0169 1.0169 z M16.44047118644068 11.6102 l-1.3051 0 c-0.16949 0 -0.27119 0.11881 -0.27119 0.27119 l0 7.4407 c0 0.38983 0.23729 0.6778 0.64407 0.6778 l0.94915 0 c0.15254 0 0.25424 -0.10153 0.25424 -0.28797 l0 -7.8305 c0 -0.15238 -0.11864 -0.27119 -0.27119 -0.27119 z M26.762750847457625 11.6102 l-1.4575 -0.00016552 c-0.15254 0 -0.20339 0.084746 -0.27119 0.25441 l-2.3051 5.0846 l-2.322 -5.0846 c-0.067797 -0.16966 -0.11864 -0.25441 -0.27119 -0.25441 l-1.5254 0 c-0.15254 0 -0.23712 0.084746 -0.16933 0.25441 l3.9153 8.0168 c0.050847 0.11864 0.18644 0.20339 0.28814 0.20339 l0.16949 0 c0.10169 0 0.23712 -0.084746 0.28797 -0.20339 l3.8814 -8.0168 c0.08458 -0.15254 -0.067963 -0.25424 -0.22051 -0.25424 z M29.643877966101694 8.492 c-0.55915 0 -1.0168 -0.44068 -1.0168 -1.0169 c0 -0.55932 0.45763 -1.0169 1.0168 -1.0169 c0.55932 0 1.0169 0.45763 1.0169 1.0169 c0 0.57627 -0.45763 1.0169 -1.0169 1.0169 z M30.304877966101696 11.6102 l-1.3051 0 c-0.16949 0 -0.27119 0.11881 -0.27119 0.27119 l0 7.4407 c0 0.38983 0.23729 0.6778 0.64407 0.6778 l0.94915 0 c0.15254 0 0.25424 -0.10153 0.25424 -0.28797 l0 -7.8305 c0 -0.15238 -0.11864 -0.27119 -0.27119 -0.27119 z M39.67781355932203 18.4746 c0.10169 0.15254 0.10136 0.27119 -0.01728 0.39 c-0.74576 0.71186 -1.7288 1.2541 -2.9153 1.2541 c-2.339 0 -4.339 -1.8812 -4.339 -4.288 c0 -2.4237 2 -4.339 4.339 -4.339 c1.1864 0 2.1525 0.49153 2.8475 1.1864 c0.11864 0.11881 0.11864 0.25441 0.016949 0.38983 l-0.64407 0.81356 c-0.10169 0.13559 -0.20339 0.15254 -0.40678 0.016949 c-0.42373 -0.42373 -1 -0.67797 -1.7627 -0.67797 c-1.61 0 -2.61 1.2542 -2.61 2.5932 c0 1.322 1 2.5932 2.6271 2.5932 c0.76271 0 1.3051 -0.28814 1.7966 -0.77966 c0.18644 -0.15254 0.30525 -0.10169 0.4239 0.033898 z"/>
  </g>
  
  <g id="SvgjsG9110" featurekey="nameRightFeature-0" transform="matrix(2.6549924673055743,0,0,2.6549924673055743,166.62530478927445,-16.099825292129285)" fill="#00b9ff">
    <path d="M9.9153 8.288 l-6.7288 0 l0 4.1356 l3.8983 0 c0.16949 0 0.28814 0.11864 0.28814 0.28814 l0 1.2712 c0 0.18644 -0.11864 0.28814 -0.28814 0.28814 l-3.8983 0 l0.016784 3.8814 l6.712 0 c0.16949 0 0.28814 0.11864 0.28814 0.28814 l0 1.2712 c0 0.16949 -0.11864 0.28814 -0.28814 0.28814 l-8.3559 0 c-0.16949 0 -0.28831 -0.11864 -0.28831 -0.28814 l0 -13 c0 -0.15254 0.10186 -0.27119 0.27119 -0.27119 l8.3731 0 c0.16949 0 0.28814 0.11864 0.28814 0.27119 l0 1.3051 c0 0.16949 -0.11864 0.27119 -0.28814 0.27119 z M23.695237288135594 6.441000000000001 c0.13559 0 0.23712 0.15254 0.13543 0.30492 l-5.1864 7.7288 l0 5.2373 c0 0.18644 -0.10169 0.28797 -0.27119 0.28797 l-0.98305 0 c-0.42356 0 -0.66102 -0.28797 -0.66102 -0.6778 l0 -4.8475 l-5.1864 -7.7288 c-0.084746 -0.15238 0 -0.30492 0.15254 -0.30492 l1.7119 0 c0.13559 0 0.20339 0.11864 0.28814 0.25424 l3.9831 5.8644 l3.9831 -5.8644 c0.10186 -0.13559 0.15271 -0.25424 0.30525 -0.25424 l1.7288 0 z M34.050893220338985 8.288 l-6.7288 0 l0 4.1356 l3.8983 0 c0.16949 0 0.28814 0.11864 0.28814 0.28814 l0 1.2712 c0 0.18644 -0.11864 0.28814 -0.28814 0.28814 l-3.8983 0 l0.016784 3.8814 l6.712 0 c0.16949 0 0.28814 0.11864 0.28814 0.28814 l0 1.2712 c0 0.16949 -0.11864 0.28814 -0.28814 0.28814 l-8.3559 0 c-0.16949 0 -0.28831 -0.11864 -0.28831 -0.28814 l0 -13 c0 -0.15254 0.10186 -0.27119 0.27119 -0.27119 l8.3731 0 c0.16949 0 0.28814 0.11864 0.28814 0.27119 l0 1.3051 c0 0.16949 -0.11864 0.27119 -0.28814 0.27119 z"/>
  </g>
  
</svg>
